<?xml version="1.0" encoding="UTF-8"?>
<svg width="210px" height="210px" viewBox="0 0 210 210" version="1.1" xmlns="http://www.w3.org/2000/svg" xmlns:xlink="http://www.w3.org/1999/xlink">
    <!-- Generator: Sketch 43.2 (39069) - http://www.bohemiancoding.com/sketch -->
    <title>search</title>
    <desc>Created with Sketch.</desc>
    <defs></defs>
    <g id="Page-2" stroke="none" stroke-width="1" fill="none" fill-rule="evenodd">
        <g id="Artboard" transform="translate(-94.000000, -165.000000)" fill="#2D2D2D">
            <path d="M250.146199,295.701754 L302.777778,348.333333 C303.590643,349.269006 304,350.321637 304,351.491228 C304,352.660819 303.590643,353.71345 302.777778,354.649123 L283.649123,373.77193 C282.707602,374.590643 281.660819,375 280.491228,375 C279.321637,375 278.269006,374.590643 277.333333,373.77193 L224.701754,321.140351 C210.783626,330.263158 195.520468,334.824561 178.912281,334.824561 C155.51462,334.824561 135.51462,326.520468 118.918129,309.912281 C102.304094,293.304094 94,273.304094 94,249.912281 C94,226.520468 102.304094,206.520468 118.918129,189.912281 C135.51462,173.304094 155.51462,165 178.912281,165 C202.304094,165 222.304094,173.304094 238.918129,189.912281 C255.520468,206.520468 263.830409,226.520468 263.830409,249.912281 C263.830409,266.520468 259.269006,281.783626 250.146199,295.701754 C250.146199,295.701754 259.269006,281.783626 250.146199,295.701754 L250.146199,295.701754 L250.146199,295.701754 Z M137.859649,209.035088 C126.51462,220.380117 120.842105,234.005848 120.842105,249.912281 C120.842105,265.818713 126.51462,279.444444 137.859649,290.789474 C149.204678,302.134503 162.888889,307.807018 178.912281,307.807018 C194.935673,307.807018 208.590643,302.169591 219.877193,290.877193 C231.163743,279.590643 236.807018,265.935673 236.807018,249.912281 C236.807018,233.888889 231.163743,220.233918 219.877193,208.947368 C208.590643,197.660819 194.935673,192.017544 178.912281,192.017544 C162.888889,192.017544 149.204678,197.690058 137.859649,209.035088 L137.859649,209.035088 Z" id="Fill-10"></path>
        </g>
    </g>
</svg>